<svg width="36" height="36" viewBox="0 0 36 36" fill="none" xmlns="http://www.w3.org/2000/svg">
    <path d="M0 0H36V36H0V0Z" fill="white"/>
    <rect x="6" y="5" width="24" height="2" rx="0.5" fill="#F6C543"/>
    <path fill-rule="evenodd" clip-rule="evenodd" d="M17.6464 8.35348L13.247 12.7529L24 21.8696V18.9999C24 18.7238 24.2239 18.4999 24.5 18.4999H27.2929C27.7383 18.4999 27.9614 17.9614 27.6464 17.6464L18.3536 8.35348C18.1583 8.15822 17.8417 8.15822 17.6464 8.35348ZM24 26.3401L26.9328 28.8009C27.1443 28.9785 27.4597 28.9509 27.6372 28.7393L28.28 27.9733C28.4575 27.7617 28.4299 27.4464 28.2183 27.2689L9.06722 11.1992C8.85568 11.0217 8.54031 11.0493 8.3628 11.2608L7.72002 12.0268C7.54252 12.2384 7.57011 12.5538 7.78165 12.7313L10.7652 15.2347L8.35355 17.6464C8.03857 17.9614 8.26165 18.4999 8.70711 18.4999H11.5C11.7761 18.4999 12 18.7238 12 18.9999V30.4999C12 30.7761 12.2239 30.9999 12.5 30.9999H23.5C23.7761 30.9999 24 30.7761 24 30.4999V26.3401Z" fill="#F6C543"/>
</svg>