<?xml version="1.0" encoding="UTF-8"?>
<svg width="72px" height="72px" viewBox="0 0 72 72" version="1.1" xmlns="http://www.w3.org/2000/svg" xmlns:xlink="http://www.w3.org/1999/xlink">
    <!-- Generator: Sketch 52.2 (67145) - http://www.bohemiancoding.com/sketch -->
    <title>icons_filled_error</title>
    <desc>Created with Sketch.</desc>
    <g id="icons_filled_error" stroke="none" stroke-width="1" fill="none" fill-rule="evenodd">
        <g id="common_icons_info" fill="#000000" fill-rule="nonzero">
            <path d="M36,66 C19.4314575,66 6,52.5685425 6,36 C6,19.4314575 19.4314575,6 36,6 C52.5685425,6 66,19.4314575 66,36 C66,52.5685425 52.5685425,66 36,66 Z M33.7101574,18.4072266 L34.0382824,41.1972656 L37.9552746,41.1972656 L38.2833996,18.4072266 L33.7101574,18.4072266 Z M35.9865246,51.3076172 C37.5246105,51.3076172 38.6935558,50.1591797 38.6935558,48.6621094 C38.6935558,47.1650391 37.5246105,46.0166016 35.9865246,46.0166016 C34.4894543,46.0166016 33.3000011,47.1650391 33.3000011,48.6621094 C33.3000011,50.1591797 34.4894543,51.3076172 35.9865246,51.3076172 Z" id="Combined-Shape"></path>
        </g>
    </g>
</svg>