<!-- Generated by IcoMoon.io -->
<svg version="1.1" xmlns="http://www.w3.org/2000/svg" width="32" height="32" viewBox="0 0 32 32">
<title>wedrive_space_share</title>
<path fill="#fff" d="M2.133 28.8c-1.178 0-2.133-0.955-2.133-2.133v-21.333c0-1.178 0.955-2.133 2.133-2.133h8.091c0.283 0 0.554 0.112 0.754 0.312l2.354 2.354h16.533c1.178 0 2.133 0.955 2.133 2.133v18.667c0 1.178-0.955 2.133-2.133 2.133h-27.733z"></path>
<path fill="#59ABFE" d="M2.133 28.8c-1.178 0-2.133-0.955-2.133-2.133v-21.333c0-1.178 0.955-2.133 2.133-2.133h8.091c0.283 0 0.554 0.112 0.754 0.312l2.354 2.354h16.533c1.178 0 2.133 0.955 2.133 2.133v18.667c0 1.178-0.955 2.133-2.133 2.133h-27.733z"></path>
<path fill="#2e87e7" d="M21.321 14.563l-5.321-2.83-5.31 2.824 5.313 2.191 5.318-2.186zM10.676 14.565l-0.009 0.005v6.065l5.333 2.832 5.333-2.832v-6.063l-4.939 2.877-0.398 5.853-0.391-5.857-4.929-2.88z"></path>
</svg>
