<!-- Generated by IcoMoon.io -->
<svg version="1.1" xmlns="http://www.w3.org/2000/svg" width="32" height="32" viewBox="0 0 32 32">
<title>wedrive_folder_doc</title>
<path fill="#59ABFE" d="M1.6 28.8c-0.884 0-1.6-0.716-1.6-1.6v-22.4c0-0.884 0.716-1.6 1.6-1.6h9.067l2.667 2.667h17.067c0.884 0 1.6 0.716 1.6 1.6v19.733c0 0.884-0.716 1.6-1.6 1.6h-28.8z"></path>
<path fill="#2e87e7" opacity="0.8" d="M11.312 22.4c-0.208 0-0.392-0.122-0.454-0.301l-3.112-8.965c-0.047-0.136 0.037-0.28 0.187-0.322 0.028-0.008 0.056-0.012 0.085-0.012h2.595c0.208 0 0.392 0.122 0.454 0.301l1.562 5.030 1.562-5.030c0.053-0.153 0.196-0.265 0.366-0.293l0.087-0.007h2.634c0.208 0 0.392 0.122 0.454 0.301l1.561 5.030 1.563-5.030c0.053-0.153 0.196-0.265 0.366-0.293l0.087-0.007h2.595c0.029 0 0.058 0.004 0.085 0.012 0.129 0.036 0.209 0.148 0.199 0.264l-0.012 0.058-3.112 8.965c-0.053 0.153-0.196 0.265-0.366 0.293l-0.087 0.007h-2.634c-0.208 0-0.392-0.122-0.454-0.301l-1.562-3.969-1.562 3.969c-0.053 0.153-0.196 0.265-0.366 0.293l-0.087 0.007h-2.634z"></path>
</svg>
