<!-- Generated by IcoMoon.io -->
<svg version="1.1" xmlns="http://www.w3.org/2000/svg" width="32" height="32" viewBox="0 0 32 32">
<title>wedrive_icon_multi_remove</title>
<path fill="#666" d="M6.667 8h18.667v18.349c0 0.912-0.739 1.651-1.651 1.651h-15.365c-0.912 0-1.651-0.739-1.651-1.651v-18.349z"></path>
<path fill="#666" d="M4 5.333c0-0.736 0.597-1.333 1.333-1.333h6.333c0.552 0 1-0.448 1-1s0.448-1 1-1h4.667c0.552 0 1 0.448 1 1s0.448 1 1 1h6.333c0.736 0 1.333 0.597 1.333 1.333s-0.597 1.333-1.333 1.333h-21.333c-0.736 0-1.333-0.597-1.333-1.333z"></path>
</svg>
