<!-- Generated by IcoMoon.io -->
<svg version="1.1" xmlns="http://www.w3.org/2000/svg" width="32" height="32" viewBox="0 0 32 32">
<title>wedrive_space_recycle_bin</title>
<path fill="#59ABFE" d="M1.6 28.8c-0.884 0-1.6-0.716-1.6-1.6v-22.4c0-0.884 0.716-1.6 1.6-1.6h9.067l2.667 2.667h17.067c0.884 0 1.6 0.716 1.6 1.6v19.733c0 0.884-0.716 1.6-1.6 1.6h-28.8z"></path>
<path fill="#2e87e7" opacity="0.8" d="M13.949 12.144c0-0.227 0.184-0.41 0.41-0.41h3.282c0.227 0 0.41 0.184 0.41 0.41s-0.184 0.41-0.41 0.41h-3.282c-0.227 0-0.41-0.184-0.41-0.41zM10.667 13.785c0-0.227 0.184-0.41 0.41-0.41h9.846c0.227 0 0.41 0.184 0.41 0.41s-0.184 0.41-0.41 0.41h-0.479l-0.671 8.048c-0.046 0.553-0.508 0.978-1.063 0.978h-5.422c-0.555 0-1.017-0.425-1.063-0.978l-0.671-8.048h-0.479c-0.227 0-0.41-0.184-0.41-0.41z"></path>
</svg>
