<!-- Generated by IcoMoon.io -->
<svg version="1.1" xmlns="http://www.w3.org/2000/svg" width="32" height="32" viewBox="0 0 32 32">
<title>wedrive_space_personal</title>
<path fill="#fff" d="M2.133 28.8c-1.178 0-2.133-0.955-2.133-2.133v-21.333c0-1.178 0.955-2.133 2.133-2.133h8.091c0.283 0 0.554 0.112 0.754 0.312l2.354 2.354h16.533c1.178 0 2.133 0.955 2.133 2.133v18.667c0 1.178-0.955 2.133-2.133 2.133h-27.733z"></path>
<path fill="#59ABFE" d="M2.133 28.8c-1.178 0-2.133-0.955-2.133-2.133v-21.333c0-1.178 0.955-2.133 2.133-2.133h8.091c0.283 0 0.554 0.112 0.754 0.312l2.354 2.354h16.533c1.178 0 2.133 0.955 2.133 2.133v18.667c0 1.178-0.955 2.133-2.133 2.133h-27.733z"></path>
<path fill="#2e87e7" d="M10.667 22.046c-0.001 0.194 0.157 0.352 0.354 0.354h9.959c0.197-0.002 0.355-0.16 0.354-0.354v-0.365c0-0.098-0.036-0.247-0.080-0.334 0 0-0.056-0.14-0.188-0.277s-0.895-0.815-2.283-1.54c-1.032-0.468-1.239-0.806-1.403-1.221-0.25-0.635 0.032-1.197 0.032-1.197 0.845-1.335 0.948-2.208 0.666-3.877-0.182-1.072-1.458-1.502-2.077-1.502s-1.895 0.429-2.077 1.502c-0.282 1.669-0.18 2.542 0.666 3.877 0 0 0.281 0.562 0.032 1.197-0.164 0.416-0.371 0.754-1.403 1.221-1.388 0.725-2.151 1.404-2.283 1.54s-0.189 0.277-0.189 0.277c-0.044 0.087-0.079 0.237-0.079 0.334v0.365z"></path>
</svg>
