<!-- Generated by IcoMoon.io -->
<svg version="1.1" xmlns="http://www.w3.org/2000/svg" width="32" height="32" viewBox="0 0 32 32">
<title>wedrive_folder_transfer</title>
<path fill="#59ABFE" d="M1.6 28.8c-0.884 0-1.6-0.716-1.6-1.6v-22.4c0-0.884 0.716-1.6 1.6-1.6h9.067l2.667 2.667h17.067c0.884 0 1.6 0.716 1.6 1.6v19.733c0 0.884-0.716 1.6-1.6 1.6h-28.8z"></path>
<path fill="#2e87e7" opacity="0.8" d="M20.007 19.425c-0.185-0.172-0.485-0.040-0.485 0.212v0.727l-5.314 0.008c-0.262 0-0.389-0.319-0.199-0.499l7.239-6.84c0.38-0.359 0.126-0.998-0.397-0.998h-1.326l-8.939 8.252c-0.059 0.055-0.093 0.132-0.093 0.212v1.263c0 0.268 0.080 0.433 0.695 0.695l8.335-0.009v0.772c0 0.253 0.301 0.384 0.486 0.211l1.926-1.796c0.123-0.114 0.122-0.309-0.001-0.423l-1.926-1.788zM12.932 14.117l2.67 0.001 2.191-2.084-4.861-0.001v-0.923c0-0.245-0.285-0.379-0.474-0.222l-2.364 1.966c-0.138 0.115-0.139 0.327-0.002 0.443l2.364 1.996c0.188 0.159 0.475 0.025 0.475-0.221v-0.955z"></path>
</svg>
