<svg width="22" height="22" viewBox="0 0 22 22" fill="none" xmlns="http://www.w3.org/2000/svg">
<path fill-rule="evenodd" clip-rule="evenodd" d="M6.5 11C6.5 11.8284 5.82843 12.5 5 12.5C4.17157 12.5 3.5 11.8284 3.5 11C3.5 10.1716 4.17157 9.5 5 9.5C5.82843 9.5 6.5 10.1716 6.5 11ZM12.5 11C12.5 11.8284 11.8284 12.5 11 12.5C10.1716 12.5 9.5 11.8284 9.5 11C9.5 10.1716 10.1716 9.5 11 9.5C11.8284 9.5 12.5 10.1716 12.5 11ZM17 12.5C17.8284 12.5 18.5 11.8284 18.5 11C18.5 10.1716 17.8284 9.5 17 9.5C16.1716 9.5 15.5 10.1716 15.5 11C15.5 11.8284 16.1716 12.5 17 12.5Z" fill="#B3B3B3"/>
</svg>
