<!-- Generated by IcoMoon.io -->
<svg version="1.1" xmlns="http://www.w3.org/2000/svg" width="32" height="32" viewBox="0 0 32 32">
<title>wedrive_space_info</title>
<path fill="#b3b3b3" d="M16 32c-8.837 0-16-7.163-16-16s7.163-16 16-16c8.837 0 16 7.163 16 16s-7.163 16-16 16zM16 30.545c8.033 0 14.545-6.512 14.545-14.545s-6.512-14.545-14.545-14.545c-8.033 0-14.545 6.512-14.545 14.545s6.512 14.545 14.545 14.545zM13.091 12.364h4.364v11.636h1.455v0.727h-5.818v-0.727h1.455v-10.909h-1.455v-0.727zM15.636 10.182c-1.004 0-1.818-0.814-1.818-1.818s0.814-1.818 1.818-1.818c1.004 0 1.818 0.814 1.818 1.818s-0.814 1.818-1.818 1.818z"></path>
</svg>
