<!-- Generated by IcoMoon.io -->
<svg version="1.1" xmlns="http://www.w3.org/2000/svg" width="32" height="32" viewBox="0 0 32 32">
<title>wedrive_icon_multi_move</title>
<path fill="#666" d="M4 5.333h6.667l2.732 2.667h14.602c0.736 0 1.333 0.597 1.333 1.333v16c0 0.736-0.597 1.333-1.333 1.333h-24c-0.736 0-1.333-0.597-1.333-1.333v-18.667c0-0.736 0.597-1.333 1.333-1.333zM18.663 21.205c0.312 0.312 0.819 0.312 1.131 0l2.64-2.64c0.019-0.020 0.038-0.040 0.055-0.061 0.256-0.314 0.238-0.778-0.055-1.071l-2.64-2.64c-0.312-0.313-0.819-0.313-1.131 0s-0.312 0.819 0 1.131l1.274 1.274h-9.47c-0.442 0-0.8 0.358-0.8 0.8s0.358 0.8 0.8 0.8h9.471l-1.275 1.275c-0.312 0.312-0.312 0.819 0 1.131z"></path>
</svg>
