<!-- Generated by IcoMoon.io -->
<svg version="1.1" xmlns="http://www.w3.org/2000/svg" width="32" height="32" viewBox="0 0 32 32">
<title>wedrive_icon_multi_wechat</title>
<path fill="#666" d="M30.667 19.479c0-4.063-3.956-7.351-8.835-7.351s-8.835 3.288-8.835 7.351c0 4.049 3.956 7.336 8.835 7.351 1.008-0.015 1.981-0.158 2.898-0.424 0.068-0.018 0.062-0.017 0.24-0.052s0.332 0.052 0.467 0.123l1.908 1.131c0.088 0.047 0.14 0.071 0.212 0.071 0.155 0 0.286-0.131 0.283-0.283 0.003-0.084-0.023-0.15-0.044-0.22s-0.257-0.932-0.38-1.477c-0.017-0.077-0.027-0.121-0.027-0.267s0.075-0.303 0.239-0.439c1.849-1.316 3.039-3.308 3.039-5.513zM18.828 18.207c-0.59 0-1.097-0.506-1.097-1.165 0-0.59 0.506-1.097 1.097-1.097 0.659 0 1.165 0.507 1.165 1.097 0 0.659-0.506 1.165-1.165 1.165zM24.695 18.207c-0.59 0-1.097-0.506-1.097-1.165 0-0.59 0.506-1.097 1.097-1.097 0.659 0 1.165 0.507 1.165 1.097 0 0.659-0.506 1.165-1.165 1.165z"></path>
<path fill="#666" d="M1.333 12.835c0 2.633 1.428 5.023 3.676 6.644 0.166 0.122 0.254 0.261 0.254 0.495 0 0.081-0.014 0.168-0.042 0.282-0.188 0.769-0.394 1.649-0.424 1.767s-0.077 0.196-0.071 0.283c-0.006 0.196 0.152 0.353 0.353 0.353 0.070 0 0.133-0.029 0.212-0.071l2.333-1.343c0.148-0.089 0.313-0.135 0.425-0.135s0.299 0.035 0.423 0.065c1.081 0.276 2.249 0.449 3.463 0.424 0.19 0.025 0.384 0.020 0.565 0-0.219-0.676-0.345-1.4-0.353-2.121 0.009-4.467 4.336-8.065 9.684-8.058 0.183-0.008 0.375-0.001 0.565 0-0.798-4.202-5.18-7.422-10.461-7.422-5.858 0-10.602 3.946-10.602 8.835zM8.331 11.422c-0.781 0-1.414-0.633-1.414-1.414s0.633-1.414 1.414-1.414 1.414 0.633 1.414 1.414c0 0.781-0.633 1.414-1.414 1.414zM15.399 11.422c-0.781 0-1.414-0.633-1.414-1.414s0.633-1.414 1.414-1.414c0.781 0 1.414 0.633 1.414 1.414s-0.633 1.414-1.414 1.414z"></path>
</svg>
