<svg fill="none" height="120" viewBox="0 0 120 120" width="120" xmlns="http://www.w3.org/2000/svg" xmlns:xlink="http://www.w3.org/1999/xlink"><mask id="a" height="83" maskUnits="userSpaceOnUse" width="66" x="22" y="20"><rect fill="#fff" height="82" rx="2.5" stroke="#fff" width="65" x="22.5" y="20.5"/></mask><rect fill="#fff" height="82" rx="2.5" stroke="#94b2d5" width="65" x="22.5" y="20.5"/><g mask="url(#a)"><path d="m22.75 20.75h64.5v9.88028h-64.5z" fill="#ecf6ff" stroke="#94b3d5" stroke-width=".5"/></g><g fill="#96b3d5"><rect height="7" rx="1" width="2" x="33" y="18"/><rect height="7" rx="1" width="2" x="47" y="18"/><rect height="7" rx="1" width="2" x="61" y="18"/><rect height="7" rx="1" width="2" x="75" y="18"/></g><g fill="#ecf6ff"><path d="m75.856 84.2206.0826-.0616.0515-.0891 27.6749-47.9345c.69-1.1958.281-2.7247-.915-3.4151-1.196-.6903-2.725-.2807-3.4151.9151l-27.675 47.9345-.0515.0891-.012.1023-.593 5.027-.1361 1.1545.9317-.6952z" stroke="#94b3d5"/><path d="m31 42h48v2h-48z"/><path d="m31 51h48v2h-48z"/><path d="m31 60h26v2h-26z"/></g></svg>